<svg xmlns="http://www.w3.org/2000/svg" version="1.1" xmlns:xlink="http://www.w3.org/1999/xlink" xmlns:svgjs="http://svgjs.dev/svgjs" width="1000" height="191" viewBox="0 0 1000 191"><g transform="matrix(1,0,0,1,-0.6060606020757291,-0.2397141042251434)"><svg viewBox="0 0 396 76" data-background-color="#ffffff" preserveAspectRatio="xMidYMid meet" height="191" width="1000" xmlns="http://www.w3.org/2000/svg" xmlns:xlink="http://www.w3.org/1999/xlink"><g id="tight-bounds" transform="matrix(1,0,0,1,0.2400000015780961,0.09538362262361488)"><svg viewBox="0 0 395.52 75.80923275475274" height="75.80923275475274" width="395.52"><g><svg viewBox="0 0 501.2502174255035 96.07452063405242" height="75.80923275475274" width="395.52"><g transform="matrix(1,0,0,1,0,13.278027091971069)"><svg viewBox="0 0 395.52 69.51846645011028" height="69.51846645011028" width="395.52"><g id="textblocktransform"><svg viewBox="0 0 395.52 69.51846645011028" height="69.51846645011028" width="395.52" id="textblock"><g><svg viewBox="0 0 395.52 40.90079801187353" height="40.90079801187353" width="395.52"><g transform="matrix(1,0,0,1,0,0)"><svg width="395.52" viewBox="0.3400000035762787 -36.060001373291016 353.6400146484375 36.56999969482422" height="40.90079801187353" data-palette-color="#ceb700"><path d="M24.8 0L8.81 0 8.81-5 12.52-5.79 12.52-28.91 7.03-28.91 6.81-25.07 0.34-25.07 0.34-35.55 33.37-35.55 33.37-25.07 26.83-25.07 26.64-28.91 21.09-28.91 21.09-5.79 24.8-5 24.8 0ZM44.04 0L30.73 0 30.73-5 33.23-5.37 43.82-35.55 53.1-35.55 63.72-5.37 66.21-5 66.21 0 52.93 0 52.93-5 55.25-5.44 54.17-9.3 42.75-9.3 41.72-5.44 44.04-5 44.04 0ZM47.92-25.95L44.55-15.31 52.34-15.31 48.87-26.07 48.48-27.32 48.34-27.32 47.92-25.95ZM83.69 0L67.74 0 67.74-5 71.43-5.79 71.43-29.74 67.74-30.52 67.74-35.55 71.43-35.55 85.03-35.55Q89.28-35.55 92.4-34.06 95.53-32.57 97.22-29.92 98.92-27.27 98.92-23.75L98.92-23.75Q98.92-20.24 97.22-17.6 95.53-14.97 92.4-13.5 89.28-12.04 85.03-12.04L85.03-12.04 80-12.04 80-5.79 83.69-5 83.69 0ZM80-29L80-18.6 85.03-18.6Q87.64-18.6 89-20.03 90.35-21.46 90.35-23.71L90.35-23.71Q90.35-26.03 89-27.51 87.64-29 85.03-29L85.03-29 80-29ZM116.42 0L100.51 0 100.51-5 104.19-5.79 104.19-29.74 100.51-30.52 100.51-35.55 116.42-35.55 116.42-30.52 112.74-29.74 112.74-5.79 116.42-5 116.42 0ZM134.32 0L118.37 0 118.37-5 122.06-5.79 122.06-29.74 118.37-30.52 118.37-35.57 135.85-35.57Q140.08-35.57 143.18-34.23 146.28-32.89 147.96-30.41 149.65-27.93 149.65-24.54L149.65-24.54Q149.65-21.41 147.95-18.73 146.25-16.04 143.3-14.42 140.35-12.79 136.56-12.82L136.56-12.82 130.63-12.89 130.63-5.79 134.32-5 134.32 0ZM151.24 0L140.88 0 136.1-13.87 143.54-16.41 147.87-5.83 151.24-4.98 151.24 0ZM130.63-29L130.63-19.46 135.95-19.46Q138.44-19.46 139.78-20.62 141.13-21.78 141.13-23.97L141.13-23.97Q141.13-26.25 139.76-27.62 138.39-29 135.85-29L135.85-29 130.63-29ZM181.89 0L165.24 0 165.24-5 168.98-5.91 168.98-29.59 165.24-30.52 165.24-35.55 168.98-35.55 181.89-35.55Q186.7-35.55 190.41-33.31 194.13-31.08 196.23-27.14 198.32-23.19 198.32-18.04L198.32-18.04 198.32-17.48Q198.32-12.33 196.23-8.39 194.13-4.44 190.41-2.22 186.7 0 181.89 0L181.89 0ZM177.55-29.03L177.55-6.49 181.45-6.49Q184.16-6.49 186-7.86 187.83-9.23 188.77-11.71 189.71-14.18 189.71-17.48L189.71-17.48 189.71-18.07Q189.71-21.36 188.77-23.83 187.83-26.29 186-27.66 184.16-29.03 181.45-29.03L181.45-29.03 177.55-29.03ZM229.91 0L201.13 0 201.13-5 204.82-5.79 204.82-29.74 201.13-30.52 201.13-35.55 229.52-35.55 229.52-25.29 223.05-25.29 222.86-28.96 213.39-28.96 213.39-21.66 224.74-21.66 224.74-15.09 213.39-15.09 213.39-6.62 223.32-6.62 223.52-10.45 229.91-10.45 229.91 0ZM248.64 0.51L248.64 0.51Q244.29 0.51 240.92-0.32 237.55-1.15 234.21-3.44L234.21-3.44 234.21-12.67 240.82-12.67 241.56-7.93Q242.34-7.06 244.32-6.46 246.29-5.86 248.64-5.86L248.64-5.86Q250.27-5.86 251.37-6.26 252.47-6.67 253.03-7.45 253.59-8.23 253.59-9.33L253.59-9.33Q253.59-10.38 253.07-11.21 252.54-12.04 251.35-12.78 250.15-13.53 248.12-14.31L248.12-14.31Q243.56-15.77 240.63-17.29 237.7-18.8 236.27-20.87 234.84-22.95 234.84-26.03L234.84-26.03Q234.84-28.98 236.53-31.19 238.21-33.4 241.17-34.67 244.12-35.94 247.93-36.01L247.93-36.01Q252.27-36.11 255.62-35.14 258.96-34.18 261.53-32.23L261.53-32.23 261.53-23.66 255.18-23.66 254.18-28.42Q253.35-28.83 251.81-29.17 250.27-29.52 248.54-29.52L248.54-29.52Q247.05-29.52 245.89-29.13 244.73-28.74 244.06-27.95 243.39-27.17 243.39-26L243.39-26Q243.39-25.05 243.95-24.3 244.51-23.56 245.93-22.81 247.34-22.07 249.88-21.09L249.88-21.09Q255.94-19.31 259.07-16.64 262.21-13.96 262.21-9.38L262.21-9.38Q262.21-6.23 260.5-4.02 258.79-1.81 255.74-0.65 252.69 0.51 248.64 0.51ZM280.06 0L264.14 0 264.14-5 267.82-5.79 267.82-29.74 264.14-30.52 264.14-35.55 280.06-35.55 280.06-30.52 276.37-29.74 276.37-5.79 280.06-5 280.06 0ZM298.85 0.51L298.85 0.51Q293.33 0.51 289.51-1.64 285.69-3.78 283.69-7.6 281.69-11.43 281.69-16.46L281.69-16.46 281.69-18.07Q281.69-23.36 283.67-27.42 285.64-31.47 289.4-33.76 293.16-36.06 298.49-36.06L298.49-36.06Q302.12-36.06 305.79-34.95 309.45-33.84 312.23-31.45L312.23-31.45 312.23-23.12 306.13-23.12 304.83-27.64Q304-28.49 302.48-29.05 300.95-29.61 299.05-29.61L299.05-29.61Q296.12-29.61 294.14-28.16 292.16-26.71 291.17-24.12 290.18-21.53 290.18-18.12L290.18-18.12 290.18-16.46Q290.18-13.23 291.22-10.86 292.26-8.5 294.26-7.2 296.26-5.91 299.19-5.91L299.19-5.91Q300.73-5.91 302.25-6.23 303.76-6.54 304.61-6.93L304.61-6.93 304.61-11.52 300.61-12.01 300.61-17.92 313.21-17.92 313.21-3.17Q310.33-1.32 306.7-0.4 303.08 0.51 298.85 0.51ZM331.86 0L315.91 0 315.91-5 319.58-5.79 319.58-29.74 315.91-30.52 315.91-35.55 319.58-35.55 328.29-35.55 342.55-12.79 342.7-12.79 342.7-29.74 338.03-30.52 338.03-35.55 350.29-35.55 353.98-35.55 353.98-30.52 350.29-29.74 350.29 0 341.84 0 327.32-22.27 327.17-22.27 327.17-5.79 331.86-5 331.86 0Z" opacity="1" transform="matrix(1,0,0,1,0,0)" fill="#ceb700" class="undefined-text-0" data-fill-palette-color="primary" id="text-0"></path></svg></g></svg></g><g transform="matrix(1,0,0,1,163.31020799999996,50.55649480332459)"><svg viewBox="0 0 232.20979200000002 18.961971646785692" height="18.961971646785692" width="232.20979200000002"><g transform="matrix(1,0,0,1,0,0)"><svg width="232.20979200000002" viewBox="4.5 -39.04999923706055 624.489990234375 51" height="18.961971646785692" data-palette-color="#ceb700"><path d="M41.1 0L41.1 0Q40.15 0 39.55-0.58 38.95-1.15 38.95-2.1L38.95-2.1 38.95-16.45Q38.95-19.9 37.2-21.78 35.45-23.65 32.7-23.65L32.7-23.65Q29.75-23.65 27.88-21.68 26-19.7 26.05-16.45L26.05-16.45 22.35-16.45Q22.4-19.8 23.8-22.33 25.2-24.85 27.68-26.25 30.15-27.65 33.3-27.65L33.3-27.65Q36.2-27.65 38.45-26.3 40.7-24.95 41.95-22.43 43.2-19.9 43.2-16.45L43.2-16.45 43.2-2.1Q43.2-1.15 42.63-0.58 42.05 0 41.1 0ZM6.65 0L6.65 0Q5.7 0 5.1-0.58 4.5-1.15 4.5-2.1L4.5-2.1 4.5-25.2Q4.5-26.15 5.1-26.75 5.7-27.35 6.65-27.35L6.65-27.35Q7.6-27.35 8.18-26.75 8.75-26.15 8.75-25.2L8.75-25.2 8.75-2.1Q8.75-1.15 8.18-0.58 7.6 0 6.65 0ZM23.9 0L23.9 0Q23 0 22.38-0.58 21.75-1.15 21.75-2.1L21.75-2.1 21.75-16.45Q21.75-19.9 20-21.78 18.25-23.65 15.5-23.65L15.5-23.65Q12.55-23.65 10.65-21.7 8.75-19.75 8.75-16.65L8.75-16.65 5.9-16.65Q5.95-19.9 7.28-22.38 8.6-24.85 10.9-26.25 13.2-27.65 16.1-27.65L16.1-27.65Q19-27.65 21.25-26.3 23.5-24.95 24.78-22.43 26.05-19.9 26.05-16.45L26.05-16.45 26.05-2.1Q26.05-1.15 25.45-0.58 24.85 0 23.9 0ZM63.55 0.25L63.55 0.25Q59.75 0.25 56.75-1.58 53.75-3.4 52-6.55 50.25-9.7 50.25-13.65L50.25-13.65Q50.25-17.65 52.07-20.8 53.9-23.95 57.05-25.78 60.2-27.6 64.15-27.6L64.15-27.6Q68.05-27.6 71.17-25.78 74.3-23.95 76.12-20.8 77.95-17.65 78-13.65L78-13.65 76.3-12.85Q76.3-9.15 74.62-6.18 72.95-3.2 70.07-1.48 67.2 0.25 63.55 0.25ZM64.15-3.6L64.15-3.6Q66.9-3.6 69.1-4.9 71.3-6.2 72.55-8.5 73.8-10.8 73.8-13.65L73.8-13.65Q73.8-16.55 72.55-18.82 71.3-21.1 69.1-22.43 66.9-23.75 64.15-23.75L64.15-23.75Q61.4-23.75 59.2-22.43 57-21.1 55.7-18.82 54.4-16.55 54.4-13.65L54.4-13.65Q54.4-10.8 55.7-8.5 57-6.2 59.2-4.9 61.4-3.6 64.15-3.6ZM75.85 0L75.85 0Q74.9 0 74.3-0.58 73.7-1.15 73.7-2.1L73.7-2.1 73.7-10.35 74.65-14.75 78-13.65 78-2.1Q78-1.15 77.37-0.58 76.75 0 75.85 0ZM105.7-24.3L89.2-9.45 86.59-12.25 103.09-27.15Q103.75-27.75 104.5-27.7 105.25-27.65 105.84-27L105.84-27Q106.45-26.35 106.4-25.6 106.34-24.85 105.7-24.3L105.7-24.3ZM87.59 0L87.59 0Q86.65 0 86.07-0.58 85.5-1.15 85.5-2.1L85.5-2.1 85.5-36.95Q85.5-37.9 86.07-38.48 86.65-39.05 87.59-39.05L87.59-39.05Q88.5-39.05 89.07-38.48 89.65-37.9 89.65-36.95L89.65-36.95 89.65-2.1Q89.65-1.15 89.07-0.58 88.5 0 87.59 0ZM105.84-0.25L105.84-0.25Q105.15 0.35 104.37 0.28 103.59 0.2 103.05-0.5L103.05-0.5 92.2-13.85 95.2-16.55 106.15-3.05Q106.7-2.35 106.65-1.6 106.59-0.85 105.84-0.25ZM124.09 0.25L124.09 0.25Q119.99 0.25 116.84-1.53 113.69-3.3 111.89-6.45 110.09-9.6 110.09-13.65L110.09-13.65Q110.09-17.75 111.79-20.88 113.49-24 116.47-25.8 119.44-27.6 123.34-27.6L123.34-27.6Q127.19-27.6 129.99-25.88 132.79-24.15 134.32-21.1 135.84-18.05 135.84-14.15L135.84-14.15Q135.84-13.3 135.29-12.78 134.74-12.25 133.89-12.25L133.89-12.25 112.99-12.25 112.99-15.7 134.09-15.7 131.99-14.2Q131.99-16.95 130.94-19.15 129.89-21.35 127.97-22.6 126.04-23.85 123.34-23.85L123.34-23.85Q120.49-23.85 118.39-22.53 116.29-21.2 115.14-18.9 113.99-16.6 113.99-13.65L113.99-13.65Q113.99-10.7 115.29-8.43 116.59-6.15 118.87-4.83 121.14-3.5 124.09-3.5L124.09-3.5Q125.79-3.5 127.57-4.1 129.34-4.7 130.39-5.6L130.39-5.6Q130.99-6.1 131.77-6.13 132.54-6.15 133.09-5.7L133.09-5.7Q133.79-5.05 133.82-4.28 133.84-3.5 133.19-2.95L133.19-2.95Q131.49-1.55 128.97-0.65 126.44 0.25 124.09 0.25ZM161.74 11.95L161.74 11.95Q161.34 11.95 160.74 11.7L160.74 11.7Q158.89 10.85 159.74 9.05L159.74 9.05 175.59-26.15Q176.39-27.95 178.24-27.15L178.24-27.15Q180.09-26.4 179.29-24.55L179.29-24.55 163.39 10.65Q162.84 11.95 161.74 11.95ZM167.44-0.95L167.44-0.95Q166.59-0.55 165.89-0.83 165.19-1.1 164.74-1.9L164.74-1.9 153.49-24.55Q153.09-25.35 153.39-26.08 153.69-26.8 154.49-27.2L154.49-27.2Q155.34-27.55 156.04-27.3 156.74-27.05 157.14-26.2L157.14-26.2 168.09-3.55Q168.54-2.75 168.39-2.02 168.24-1.3 167.44-0.95ZM195.69 0.25L195.69 0.25Q191.64 0.25 188.51-1.55 185.39-3.35 183.59-6.5 181.79-9.65 181.79-13.65L181.79-13.65Q181.79-17.7 183.59-20.85 185.39-24 188.51-25.8 191.64-27.6 195.69-27.6L195.69-27.6Q199.69-27.6 202.79-25.8 205.89-24 207.69-20.85 209.49-17.7 209.54-13.65L209.54-13.65Q209.54-9.65 207.74-6.5 205.94-3.35 202.81-1.55 199.69 0.25 195.69 0.25ZM195.69-3.6L195.69-3.6Q198.49-3.6 200.69-4.9 202.89-6.2 204.11-8.47 205.34-10.75 205.34-13.65L205.34-13.65Q205.34-16.55 204.11-18.85 202.89-21.15 200.69-22.45 198.49-23.75 195.69-23.75L195.69-23.75Q192.89-23.75 190.69-22.45 188.49-21.15 187.21-18.85 185.94-16.55 185.94-13.65L185.94-13.65Q185.94-10.75 187.21-8.47 188.49-6.2 190.69-4.9 192.89-3.6 195.69-3.6ZM228.78 0.3L228.78 0.3Q225.28 0.3 222.51-1.18 219.73-2.65 218.13-5.5 216.53-8.35 216.53-12.5L216.53-12.5 216.53-25.25Q216.53-26.15 217.13-26.75 217.73-27.35 218.63-27.35L218.63-27.35Q219.58-27.35 220.18-26.75 220.78-26.15 220.78-25.25L220.78-25.25 220.78-12.5Q220.78-9.5 221.91-7.55 223.03-5.6 224.98-4.65 226.93-3.7 229.38-3.7L229.38-3.7Q231.73-3.7 233.61-4.6 235.48-5.5 236.58-7.1 237.68-8.7 237.68-10.7L237.68-10.7 240.58-10.7Q240.48-7.55 238.93-5.08 237.38-2.6 234.73-1.15 232.08 0.3 228.78 0.3ZM239.83 0L239.83 0Q238.88 0 238.28-0.6 237.68-1.2 237.68-2.15L237.68-2.15 237.68-25.25Q237.68-26.2 238.28-26.78 238.88-27.35 239.83-27.35L239.83-27.35Q240.78-27.35 241.38-26.78 241.98-26.2 241.98-25.25L241.98-25.25 241.98-2.15Q241.98-1.2 241.38-0.6 240.78 0 239.83 0ZM255.18-16.95L252.88-16.95Q252.98-20 254.46-22.43 255.93-24.85 258.33-26.25 260.73-27.65 263.68-27.65L263.68-27.65Q266.23-27.65 267.56-26.9 268.88-26.15 268.53-24.85L268.53-24.85Q268.38-24.1 267.91-23.83 267.43-23.55 266.81-23.55 266.18-23.55 265.38-23.6L265.38-23.6Q262.48-24 260.18-23.28 257.88-22.55 256.53-20.9 255.18-19.25 255.18-16.95L255.18-16.95ZM253.08 0L253.08 0Q252.08 0 251.53-0.55 250.98-1.1 250.98-2.1L250.98-2.1 250.98-25.25Q250.98-26.25 251.53-26.8 252.08-27.35 253.08-27.35L253.08-27.35Q254.08-27.35 254.63-26.8 255.18-26.25 255.18-25.25L255.18-25.25 255.18-2.1Q255.18-1.1 254.63-0.55 254.08 0 253.08 0ZM301.43 0.25L301.43 0.25Q297.48 0.25 294.33-1.58 291.18-3.4 289.35-6.55 287.53-9.7 287.53-13.7L287.53-13.7Q287.53-17.65 289.28-20.8 291.03-23.95 294.03-25.78 297.03-27.6 300.83-27.6L300.83-27.6Q304.03-27.6 306.65-26.23 309.28-24.85 310.98-22.6L310.98-22.6 310.98-36.9Q310.98-37.9 311.58-38.48 312.18-39.05 313.13-39.05L313.13-39.05Q314.08-39.05 314.68-38.48 315.28-37.9 315.28-36.9L315.28-36.9 315.28-13.55Q315.18-9.65 313.35-6.53 311.53-3.4 308.43-1.58 305.33 0.25 301.43 0.25ZM301.43-3.6L301.43-3.6Q304.18-3.6 306.38-4.93 308.58-6.25 309.83-8.53 311.08-10.8 311.08-13.7L311.08-13.7Q311.08-16.55 309.83-18.85 308.58-21.15 306.38-22.45 304.18-23.75 301.43-23.75L301.43-23.75Q298.68-23.75 296.48-22.45 294.28-21.15 292.98-18.85 291.68-16.55 291.68-13.7L291.68-13.7Q291.68-10.8 292.98-8.53 294.28-6.25 296.48-4.93 298.68-3.6 301.43-3.6ZM336.12 0.25L336.12 0.25Q332.32 0.25 329.32-1.58 326.32-3.4 324.57-6.55 322.82-9.7 322.82-13.65L322.82-13.65Q322.82-17.65 324.65-20.8 326.47-23.95 329.62-25.78 332.77-27.6 336.72-27.6L336.72-27.6Q340.62-27.6 343.75-25.78 346.87-23.95 348.7-20.8 350.52-17.65 350.57-13.65L350.57-13.65 348.87-12.85Q348.87-9.15 347.2-6.18 345.52-3.2 342.65-1.48 339.77 0.25 336.12 0.25ZM336.72-3.6L336.72-3.6Q339.47-3.6 341.67-4.9 343.87-6.2 345.12-8.5 346.37-10.8 346.37-13.65L346.37-13.65Q346.37-16.55 345.12-18.82 343.87-21.1 341.67-22.43 339.47-23.75 336.72-23.75L336.72-23.75Q333.97-23.75 331.77-22.43 329.57-21.1 328.27-18.82 326.97-16.55 326.97-13.65L326.97-13.65Q326.97-10.8 328.27-8.5 329.57-6.2 331.77-4.9 333.97-3.6 336.72-3.6ZM348.42 0L348.42 0Q347.47 0 346.87-0.58 346.27-1.15 346.27-2.1L346.27-2.1 346.27-10.35 347.22-14.75 350.57-13.65 350.57-2.1Q350.57-1.15 349.95-0.58 349.32 0 348.42 0ZM362.82 11.95L362.82 11.95Q362.42 11.95 361.82 11.7L361.82 11.7Q359.97 10.85 360.82 9.05L360.82 9.05 376.67-26.15Q377.47-27.95 379.32-27.15L379.32-27.15Q381.17-26.4 380.37-24.55L380.37-24.55 364.47 10.65Q363.92 11.95 362.82 11.95ZM368.52-0.95L368.52-0.95Q367.67-0.55 366.97-0.83 366.27-1.1 365.82-1.9L365.82-1.9 354.57-24.55Q354.17-25.35 354.47-26.08 354.77-26.8 355.57-27.2L355.57-27.2Q356.42-27.55 357.12-27.3 357.82-27.05 358.22-26.2L358.22-26.2 369.17-3.55Q369.62-2.75 369.47-2.02 369.32-1.3 368.52-0.95ZM413.77 0.25L413.77 0.25Q409.87 0.25 406.77-1.58 403.67-3.4 401.84-6.53 400.02-9.65 399.97-13.55L399.97-13.55 399.97-36.9Q399.97-37.9 400.57-38.48 401.17-39.05 402.12-39.05L402.12-39.05Q403.07-39.05 403.64-38.48 404.22-37.9 404.22-36.9L404.22-36.9 404.22-22.6Q405.92-24.85 408.57-26.23 411.22-27.6 414.42-27.6L414.42-27.6Q418.22-27.6 421.22-25.78 424.22-23.95 425.94-20.8 427.67-17.65 427.67-13.7L427.67-13.7Q427.67-9.7 425.84-6.55 424.02-3.4 420.89-1.58 417.77 0.25 413.77 0.25ZM413.77-3.6L413.77-3.6Q416.57-3.6 418.77-4.93 420.97-6.25 422.24-8.53 423.52-10.8 423.52-13.7L423.52-13.7Q423.52-16.55 422.24-18.85 420.97-21.15 418.77-22.45 416.57-23.75 413.77-23.75L413.77-23.75Q411.07-23.75 408.84-22.45 406.62-21.15 405.37-18.85 404.12-16.55 404.12-13.7L404.12-13.7Q404.12-10.8 405.37-8.53 406.62-6.25 408.84-4.93 411.07-3.6 413.77-3.6ZM447.81 0.25L447.81 0.25Q443.71 0.25 440.56-1.53 437.41-3.3 435.61-6.45 433.81-9.6 433.81-13.65L433.81-13.65Q433.81-17.75 435.51-20.88 437.21-24 440.19-25.8 443.16-27.6 447.06-27.6L447.06-27.6Q450.91-27.6 453.71-25.88 456.51-24.15 458.04-21.1 459.56-18.05 459.56-14.15L459.56-14.15Q459.56-13.3 459.01-12.78 458.46-12.25 457.61-12.25L457.61-12.25 436.71-12.25 436.71-15.7 457.81-15.7 455.71-14.2Q455.71-16.95 454.66-19.15 453.61-21.35 451.69-22.6 449.76-23.85 447.06-23.85L447.06-23.85Q444.21-23.85 442.11-22.53 440.01-21.2 438.86-18.9 437.71-16.6 437.71-13.65L437.71-13.65Q437.71-10.7 439.01-8.43 440.31-6.15 442.59-4.83 444.86-3.5 447.81-3.5L447.81-3.5Q449.51-3.5 451.29-4.1 453.06-4.7 454.11-5.6L454.11-5.6Q454.71-6.1 455.49-6.13 456.26-6.15 456.81-5.7L456.81-5.7Q457.51-5.05 457.54-4.28 457.56-3.5 456.91-2.95L456.91-2.95Q455.21-1.55 452.69-0.65 450.16 0.25 447.81 0.25ZM476.91 0.25L476.91 0.25Q473.11 0.25 470.11-1.58 467.11-3.4 465.36-6.55 463.61-9.7 463.61-13.65L463.61-13.65Q463.61-17.65 465.44-20.8 467.26-23.95 470.41-25.78 473.56-27.6 477.51-27.6L477.51-27.6Q481.41-27.6 484.54-25.78 487.66-23.95 489.49-20.8 491.31-17.65 491.36-13.65L491.36-13.65 489.66-12.85Q489.66-9.15 487.99-6.18 486.31-3.2 483.44-1.48 480.56 0.25 476.91 0.25ZM477.51-3.6L477.51-3.6Q480.26-3.6 482.46-4.9 484.66-6.2 485.91-8.5 487.16-10.8 487.16-13.65L487.16-13.65Q487.16-16.55 485.91-18.82 484.66-21.1 482.46-22.43 480.26-23.75 477.51-23.75L477.51-23.75Q474.76-23.75 472.56-22.43 470.36-21.1 469.06-18.82 467.76-16.55 467.76-13.65L467.76-13.65Q467.76-10.8 469.06-8.5 470.36-6.2 472.56-4.9 474.76-3.6 477.51-3.6ZM489.21 0L489.21 0Q488.26 0 487.66-0.58 487.06-1.15 487.06-2.1L487.06-2.1 487.06-10.35 488.01-14.75 491.36-13.65 491.36-2.1Q491.36-1.15 490.74-0.58 490.11 0 489.21 0ZM510.61 0.3L510.61 0.3Q507.11 0.3 504.33-1.18 501.56-2.65 499.96-5.5 498.36-8.35 498.36-12.5L498.36-12.5 498.36-25.25Q498.36-26.15 498.96-26.75 499.56-27.35 500.46-27.35L500.46-27.35Q501.41-27.35 502.01-26.75 502.61-26.15 502.61-25.25L502.61-25.25 502.61-12.5Q502.61-9.5 503.73-7.55 504.86-5.6 506.81-4.65 508.76-3.7 511.21-3.7L511.21-3.7Q513.56-3.7 515.43-4.6 517.31-5.5 518.41-7.1 519.51-8.7 519.51-10.7L519.51-10.7 522.41-10.7Q522.31-7.55 520.76-5.08 519.21-2.6 516.56-1.15 513.91 0.3 510.61 0.3ZM521.66 0L521.66 0Q520.71 0 520.11-0.6 519.51-1.2 519.51-2.15L519.51-2.15 519.51-25.25Q519.51-26.2 520.11-26.78 520.71-27.35 521.66-27.35L521.66-27.35Q522.61-27.35 523.21-26.78 523.81-26.2 523.81-25.25L523.81-25.25 523.81-2.15Q523.81-1.2 523.21-0.6 522.61 0 521.66 0ZM544.26 0L543.26 0Q540.66 0 538.61-1.25 536.56-2.5 535.38-4.7 534.21-6.9 534.21-9.65L534.21-9.65 534.21-33.9Q534.21-34.85 534.78-35.45 535.36-36.05 536.31-36.05L536.31-36.05Q537.21-36.05 537.81-35.45 538.41-34.85 538.41-33.9L538.41-33.9 538.41-9.65Q538.41-7.3 539.78-5.78 541.16-4.25 543.26-4.25L543.26-4.25 544.71-4.25Q545.56-4.25 546.11-3.65 546.66-3.05 546.66-2.1L546.66-2.1Q546.66-1.15 545.98-0.58 545.31 0 544.26 0L544.26 0ZM543.61-22.7L531.26-22.7Q530.41-22.7 529.86-23.2 529.31-23.7 529.31-24.5L529.31-24.5Q529.31-25.3 529.86-25.83 530.41-26.35 531.26-26.35L531.26-26.35 543.61-26.35Q544.46-26.35 545.01-25.83 545.56-25.3 545.56-24.5L545.56-24.5Q545.56-23.7 545.01-23.2 544.46-22.7 543.61-22.7L543.61-22.7ZM555.75 0L555.75 0Q554.8 0 554.2-0.6 553.6-1.2 553.6-2.15L553.6-2.15 553.6-25.2Q553.6-26.2 554.2-26.78 554.8-27.35 555.75-27.35L555.75-27.35Q556.7-27.35 557.28-26.78 557.85-26.2 557.85-25.2L557.85-25.2 557.85-2.15Q557.85-1.2 557.28-0.6 556.7 0 555.75 0ZM555.7-32.3L555.7-32.3Q554.5-32.3 553.65-33.15 552.8-34 552.8-35.25L552.8-35.25Q552.8-36.5 553.68-37.33 554.55-38.15 555.75-38.15L555.75-38.15Q556.9-38.15 557.78-37.33 558.65-36.5 558.65-35.25L558.65-35.25Q558.65-34 557.78-33.15 556.9-32.3 555.7-32.3ZM570.8 0L570.8 0Q570 0 569.38-0.58 568.75-1.15 568.75-2.15L568.75-2.15 568.75-27.25Q568.75-30.8 570.02-33.45 571.3-36.1 573.72-37.58 576.15-39.05 579.5-39.05L579.5-39.05Q580.45-39.05 581.05-38.5 581.65-37.95 581.65-37.1L581.65-37.1Q581.65-36.3 581.05-35.75 580.45-35.2 579.5-35.2L579.5-35.2Q577.4-35.2 575.95-34.23 574.5-33.25 573.75-31.53 573-29.8 573-27.55L573-27.55 573-2.15Q573-1.15 572.42-0.58 571.85 0 570.8 0ZM578.7-22.7L565.9-22.7Q565-22.7 564.47-23.2 563.95-23.7 563.95-24.5L563.95-24.5Q563.95-25.3 564.47-25.83 565-26.35 565.9-26.35L565.9-26.35 578.7-26.35Q579.6-26.35 580.13-25.83 580.65-25.3 580.65-24.5L580.65-24.5Q580.65-23.7 580.13-23.2 579.6-22.7 578.7-22.7L578.7-22.7ZM597.6 0.3L597.6 0.3Q594.1 0.3 591.32-1.18 588.55-2.65 586.95-5.5 585.35-8.35 585.35-12.5L585.35-12.5 585.35-25.25Q585.35-26.15 585.95-26.75 586.55-27.35 587.45-27.35L587.45-27.35Q588.4-27.35 589-26.75 589.6-26.15 589.6-25.25L589.6-25.25 589.6-12.5Q589.6-9.5 590.72-7.55 591.85-5.6 593.8-4.65 595.75-3.7 598.2-3.7L598.2-3.7Q600.55-3.7 602.42-4.6 604.3-5.5 605.4-7.1 606.5-8.7 606.5-10.7L606.5-10.7 609.4-10.7Q609.3-7.55 607.75-5.08 606.2-2.6 603.55-1.15 600.9 0.3 597.6 0.3ZM608.65 0L608.65 0Q607.7 0 607.1-0.6 606.5-1.2 606.5-2.15L606.5-2.15 606.5-25.25Q606.5-26.2 607.1-26.78 607.7-27.35 608.65-27.35L608.65-27.35Q609.6-27.35 610.2-26.78 610.8-26.2 610.8-25.25L610.8-25.25 610.8-2.15Q610.8-1.2 610.2-0.6 609.6 0 608.65 0ZM626.34 0L625.89 0Q623.84 0 622.22-1.13 620.59-2.25 619.69-4.25 618.79-6.25 618.79-8.85L618.79-8.85 618.79-36.95Q618.79-37.9 619.37-38.48 619.94-39.05 620.89-39.05L620.89-39.05Q621.84-39.05 622.42-38.48 622.99-37.9 622.99-36.95L622.99-36.95 622.99-8.85Q622.99-6.8 623.82-5.5 624.64-4.2 625.89-4.2L625.89-4.2 627.14-4.2Q627.99-4.2 628.49-3.63 628.99-3.05 628.99-2.1L628.99-2.1Q628.99-1.15 628.27-0.58 627.54 0 626.34 0L626.34 0Z" opacity="1" transform="matrix(1,0,0,1,0,0)" fill="#ceb700" class="undefined-text-1" data-fill-palette-color="secondary" id="text-1"></path></svg></g></svg></g></svg></g></svg></g><g transform="matrix(1,0,0,1,405.17569679145106,0)"><svg viewBox="0 0 96.07452063405242 96.07452063405242" height="96.07452063405242" width="96.07452063405242"><g data-palette-color="#ceb700"><rect width="26.260368973307664" height="96.07452063405242" fill="#ceb700" stroke="transparent" data-fill-palette-color="accent" x="0" fill-opacity="1"></rect><rect width="26.260368973307664" height="96.07452063405242" fill="#ceb700" stroke="transparent" data-fill-palette-color="accent" x="32.024840211350806" fill-opacity="0.75"></rect><rect width="26.260368973307664" height="96.07452063405242" fill="#ceb700" stroke="transparent" data-fill-palette-color="accent" x="64.04968042270161" fill-opacity="0.5"></rect></g></svg></g></svg></g><defs></defs></svg><rect width="395.52" height="75.80923275475274" fill="none" stroke="none" visibility="hidden"></rect></g></svg></g></svg>